<svg xmlns="http://www.w3.org/2000/svg" width="25" height="30" viewBox="0 0 25 30" xmlns:xlink="http://www.w3.org/1999/xlink">
  <defs>
    <path id="a" d="M22.7039624,25.8359375 C23.6237959,26.3558434 24.0437135,26.7957571 23.963728,27.155692 C23.9237353,27.2756702 23.8437509,27.4056447 23.7237727,27.5456194 C23.6037944,27.6855941 23.4838179,27.7855745 23.3638396,27.8455636 L22.8839289,28.085519 C22.6839651,28.1855009 22.5639886,28.2554871 22.5239959,28.2954799 C21.2842203,28.9753568 20.4643811,29.4752588 20.0644535,29.7952009 C19.3845765,30.3950923 18.8046902,30.7350256 18.3247771,30.8150111 C17.4449364,30.9749822 16.7850658,30.8150135 16.3451454,30.3351004 C15.8652323,29.8551873 15.5652911,29.6152344 15.4453128,29.6152344 C14.0455663,29.335285 12.465876,29.335285 10.7061945,29.6152344 C10.466238,29.6552271 10.2462811,29.7252134 10.0463173,29.8251953 C9.84635351,29.9251772 9.62639663,30.0651498 9.38644007,30.2451172 C9.14648352,30.4250846 8.94652272,30.5550591 8.78655168,30.6350446 C8.22665305,30.9149939 7.62677065,30.93499 6.9868865,30.6950335 C5.98706752,30.2951059 5.16722824,30.0351568 4.52734409,29.9151786 C4.44735857,29.9151786 4.0774311,29.8451923 3.41755057,29.7052176 C2.75767004,29.565243 2.26776608,29.4552645 1.94782401,29.375279 C1.50790365,29.2553007 1.22795853,29.085334 1.10798026,28.8653739 C0.988001978,28.6454137 0.968005898,28.4154588 1.04799142,28.1755022 C1.12797694,27.9355457 1.20796126,27.6356045 1.28794677,27.2756696 C1.36793229,26.9157348 1.36793229,26.6157936 1.28794677,26.375837 C1.28794677,26.3358443 1.25795265,26.2358639 1.19796352,26.0758928 C1.13797438,25.9159218 1.10798026,25.7959453 1.10798026,25.7159598 C1.10798026,25.6359743 1.09798222,25.5259959 1.07798584,25.3860212 C1.05798946,25.2460465 1.05798946,25.1460661 1.07798584,25.086077 C1.09798222,25.0260879 1.12797634,24.9461035 1.1679691,24.8461216 C1.20796185,24.7461397 1.27794813,24.6761535 1.37793003,24.6361607 C1.47791193,24.5961679 1.60788645,24.5761719 1.76785749,24.5761719 C1.80785025,24.5761719 1.95782085,24.5661738 2.21777378,24.5461774 C2.47772672,24.5261811 2.67768752,24.506185 2.81766217,24.4861886 C2.95763683,24.4661922 3.11760547,24.406204 3.29757289,24.3062221 C3.47754031,24.2062402 3.58751875,24.0762657 3.6275115,23.9162946 C3.66750426,23.7963164 3.6775023,23.5763595 3.65750592,23.2564174 C3.63750954,22.9364753 3.66750366,22.7165184 3.74748918,22.5965402 C3.8274747,22.4765619 3.84747078,22.2266109 3.80747802,21.8466797 C3.76748526,21.4667485 3.76748526,21.2167975 3.80747802,21.0968192 C3.88746354,20.6968916 4.1274165,20.1769935 4.52734409,19.5371094 C4.92727169,18.8972252 5.18722073,18.4373154 5.307199,18.1573661 C5.7071266,17.0775616 6.06705603,16.3377066 6.38699811,15.937779 C6.46698363,15.8577935 6.73693071,15.5678503 7.19684744,15.0679408 C7.65676417,14.5680313 7.96670341,14.1781078 8.12667445,13.8981585 C8.52660204,13.1782888 8.68657068,12.0785044 8.60658516,10.5987723 C8.60658516,10.2788302 8.58658908,9.78892629 8.54659632,9.12904576 C8.50660356,8.46916522 8.48660748,7.95926519 8.48660748,7.59933036 C8.48660748,6.55951861 8.79654672,5.69968718 9.41643449,5.01981027 C10.0363223,4.33993336 10.8861557,4 11.9659602,4 L12.8058039,4 C13.9256012,4 14.8354228,4.3999216 15.5352961,5.19977679 C16.2351694,5.99963197 16.6050969,6.97943988 16.6450896,8.13922991 C16.6450896,8.25920819 16.6250935,8.60913958 16.5851008,9.1890346 C16.545108,9.76892961 16.545108,10.2788296 16.5851008,10.71875 C16.6250935,11.1586704 16.74507,11.6385763 16.9450338,12.1584821 C17.2649759,12.7583735 17.794872,13.5382206 18.5347381,14.4980469 C19.2746041,15.4578731 19.7845041,16.1377398 20.0644535,16.5376674 C20.6243521,17.4575009 21.0242737,18.4373088 21.2642302,19.4771205 C21.5841723,20.9968454 21.7241449,21.896669 21.6841521,22.1766183 C21.6441594,22.4965604 21.564175,22.7165172 21.4441968,22.8364955 C21.7241461,22.916481 21.9041108,23.0164614 21.9840963,23.1364397 C22.1040746,23.2964108 22.1040746,23.8163088 21.9840963,24.6961495 C21.9441036,25.1360699 22.1840565,25.5159954 22.7039624,25.8359375 Z"/>
    <mask id="b" width="24.973" height="28.875" x="-1" y="-1">
      <rect width="24.973" height="28.875" y="3" fill="white"/>
      <use fill="black" xlink:href="#a"/>
    </mask>
  </defs>
  <g fill="none" fill-rule="evenodd">
    <use stroke="#FFFFFF" stroke-width="2" mask="url(#b)" xlink:href="#a"/>
    <path fill="#FFFFFF" d="M21.8641186 28.0555245C22.6639738 27.6955897 23.1538778 27.4256426 23.3338452 27.2456752 23.5138126 27.0657078 23.4238303 26.8157568 23.0638954 26.4958147 22.9839099 26.455822 22.8639334 26.3858357 22.7039624 26.2858538 22.5439913 26.1858719 22.4340129 26.1258836 22.3740238 26.1058873 22.3140346 26.0858909 22.2340503 26.0359007 22.1340684 25.9559152 22.0340865 25.8759296 21.9541022 25.8159414 21.8941131 25.7759486 21.8341239 25.7359559 21.7741357 25.6759676 21.7141465 25.5959821 21.6541574 25.5159966 21.6141652 25.4360123 21.5941689 25.3560268 21.5741725 25.2760413 21.5541764 25.1860589 21.53418 25.086077 21.5141836 24.9860951 21.5041856 24.8761167 21.5041856 24.7561384 21.5041856 24.7161456 21.5341797 24.5261829 21.5941689 24.1862444 21.654158 23.846306 21.664156 23.596355 21.6241633 23.4363839 21.5841705 23.2364201 21.4042058 23.1364397 21.0842637 23.1364397 21.0042782 23.2164252 20.8643056 23.3663958 20.6643419 23.586356 20.4643781 23.8063162 20.3144075 23.9862809 20.2144256 24.1262556 20.1144437 24.2662302 19.954475 24.3862067 19.7345148 24.4861886 19.5145547 24.5861705 19.2845997 24.6361607 19.0446432 24.6361607 18.1648025 24.6361607 17.6049122 24.1562548 17.3649557 23.1964286 17.0450136 23.0364575 16.7850646 23.1164418 16.5851008 23.4363839 16.5051153 23.8363115 16.4551251 24.0962605 16.4351287 24.2162388 16.4151323 24.3362171 16.4651225 24.6261603 16.5851008 25.086077 16.7050791 25.5459937 16.7650673 25.8159408 16.7650673 25.8959263 16.8050601 26.2558612 16.785064 26.7857573 16.7050785 27.4856306 16.6250929 28.1855039 16.6050969 28.7154 16.6450896 29.0753348 16.6850824 29.6752262 16.9950216 30.0351556 17.5749166 30.1551339 18.1548116 30.2751122 18.6447156 30.1751318 19.0446432 29.8551897 19.1246287 29.815197 19.5045542 29.5552479 20.1844311 29.0753348 20.864308 28.5954217 21.4241983 28.2554883 21.8641186 28.0555245zM13.6456477 8.85909598C13.8456115 8.97907426 13.9455919 9.17903506 13.9455919 9.45898437L13.9455919 9.63895089C14.1055629 9.63895089 14.1455551 9.49897833 14.0655695 9.21902901 13.985584 8.97907246 13.8856036 8.85909598 13.7656253 8.85909598L13.6456477 8.85909598zM10.3462615 9.57896205L10.3462615 9.75892857C10.3862543 9.75892857 10.4162484 9.69894033 10.4362448 9.57896205 10.4562411 9.45898377 10.4462431 9.35900337 10.4062503 9.27901785 10.3262648 9.0390613 10.2462805 8.91908482 10.166295 8.91908482L10.0463173 8.91908482C10.2462811 9.0390631 10.3462615 9.25901997 10.3462615 9.57896205z"/>
    <path fill="#FFFFFF" d="M16.2251677,25.2360491 C16.025204,24.1562446 16.0452,23.4563818 16.2851566,23.1364397 C16.4851204,22.8564904 16.8250537,22.75651 17.3049669,22.8364955 C17.3049669,22.5165534 17.3649551,22.2766005 17.4849334,22.1166295 C17.7648827,21.7566946 18.1348102,21.596726 18.5947269,21.6367187 C19.0546436,21.6767115 19.4645633,21.8366801 19.8244981,22.1166295 L19.7645093,21.9966518 C19.4845599,21.6367169 19.2246109,21.4367561 18.9846544,21.3967634 L19.104632,19.3571428 C19.0246465,18.6372732 18.8246857,17.9674045 18.5047436,17.3475167 C18.1848016,16.727629 17.8848604,16.2777172 17.6049111,15.9977679 L17.1250003,15.6378348 C18.2048048,16.8376176 18.744699,18.2773353 18.744699,19.9570312 C18.744699,20.5969154 18.6647147,21.0768213 18.5047436,21.3967634 C18.2647871,21.4767489 18.0448302,21.5567332 17.8448664,21.6367187 C17.5649171,21.756697 17.4149465,21.7766931 17.3949501,21.6967076 C17.3749537,21.6167221 17.3649557,21.3967652 17.3649557,21.0368303 C17.3649557,19.8770403 17.2249831,18.797252 16.9450338,17.797433 C16.74507,17.2375344 16.485121,16.7576285 16.1651789,16.3577009 C16.0452006,16.1977298 15.9452202,15.8977887 15.8652347,15.4578683 C15.7052637,14.8979697 15.3853264,14.2580951 14.9054133,13.5382254 C14.5854712,13.0983051 14.4854908,12.5384149 14.6054691,11.8585379 C14.6854546,11.2986393 14.5654781,10.958706 14.2455361,10.8387277 C14.2055433,10.8387277 14.0755688,10.8087336 13.8556086,10.7487444 C13.6356484,10.6887553 13.4556837,10.628767 13.315709,10.5687779 C13.1757344,10.5087888 13.0257638,10.4288044 12.8657927,10.3288225 C12.7058217,10.2288406 12.6258374,10.1188622 12.6258374,9.99888393 C12.5058591,9.39899253 12.6058395,8.99907094 12.9257816,8.79910714 C13.2457237,8.51915782 13.5356668,8.45916958 13.7956198,8.61914062 C14.0555727,8.77911166 14.2055433,9.01906462 14.2455361,9.33900669 C14.2855288,9.65894877 14.1855484,9.95888997 13.9455919,10.2388393 C13.8656063,10.3188248 13.9055985,10.378813 14.0655695,10.4188058 C14.2255406,10.4587986 14.3455171,10.4787946 14.4255026,10.4787946 C14.5054881,10.4787946 14.6054685,10.2788338 14.7254468,9.87890625 C14.7654395,9.71893521 14.7854356,9.45898617 14.7854356,9.09905134 C14.7854356,8.57914546 14.5654787,8.15922779 14.1255584,7.83928571 C13.685638,7.51934364 13.2257282,7.51934364 12.7458151,7.83928571 C12.425873,8.03924951 12.2259122,8.37918287 12.1459267,8.85909598 L12.1459267,10.0588728 C12.0659412,10.0588728 11.9559627,10.0088826 11.8159881,9.90890067 C11.6760134,9.80891877 11.566035,9.75892857 11.4860494,9.75892857 C11.2061001,9.75892857 11.0061393,9.77892465 10.8861611,9.81891741 C10.9661466,9.25901877 10.9261544,8.81910502 10.7661834,8.49916294 C10.6462051,8.17922087 10.4262482,7.97926007 10.1063061,7.89927455 C9.78636407,7.81928903 9.52641503,7.93926551 9.32645123,8.25920759 C9.00650916,8.85909898 9.00650916,9.47897745 9.32645123,10.1188616 L9.56640659,10.4787946 L9.86635079,10.2388393 C9.62639423,10.118861 9.48642167,9.89890413 9.44642891,9.57896205 C9.40643615,9.05905618 9.54640871,8.75911498 9.86635079,8.67912946 C10.2262856,8.59914394 10.4662386,8.75911258 10.5862169,9.15904018 L10.5862169,9.93889509 C10.5462241,9.97888785 10.4362457,10.0588722 10.2562782,10.1788504 C10.0763108,10.2988287 9.92634023,10.4088072 9.80636195,10.5087891 C9.68638367,10.608771 9.55640915,10.7287474 9.41643449,10.8687221 C9.27645983,11.0086968 9.19647552,11.1286732 9.17647914,11.2286551 C9.15648276,11.328637 9.18647688,11.4586115 9.26646239,11.6185826 C9.90634655,12.4184378 10.9461427,12.5984025 12.385882,12.1584821 C13.1857372,11.8385401 13.6656431,11.5985871 13.8256142,11.4386161 C13.9055997,11.3186378 14.0255762,11.2886437 14.1855472,11.3486328 C14.3455183,11.4086219 14.3855104,11.5186004 14.3055249,11.6785714 C14.2655321,11.7585569 14.1555537,11.8385413 13.9755863,11.9185268 C13.7956189,11.9985123 13.5956581,12.0585005 13.3756979,12.0984933 C13.1557377,12.1384861 13.0257632,12.1784782 12.9857704,12.218471 C12.2659008,12.5384131 11.7060105,12.7383739 11.3060829,12.8183594 C10.6661988,12.9383376 10.1063085,12.7583729 9.62639543,12.2784598 C9.74637371,12.3584453 9.89634431,12.5584061 10.0763117,12.8783482 C10.2562791,13.1982903 10.4462419,13.3982511 10.6462057,13.4782366 C10.7261912,13.6382076 10.9461481,13.6582037 11.3060829,13.5382254 L12.025949,13.2982701 C12.1459273,13.2582773 12.3758822,13.1283028 12.7158207,12.9083426 C13.0557591,12.6883825 13.2457219,12.578404 13.2857146,12.578404 L14.0655695,12.4584263 C14.1455551,12.4584263 14.1655511,12.4984185 14.1255584,12.578404 C14.1255584,12.6583895 13.8256172,12.8383542 13.2257258,13.1183036 C13.1457403,13.1582963 12.8457991,13.3782532 12.3258932,13.7781808 C11.8059873,14.1781084 11.3860696,14.3980653 11.0661276,14.438058 C10.6662,14.4780508 10.166298,14.038137 9.56640659,13.1183036 L9.50641775,13.0583147 C9.34644671,12.7783654 9.24646631,12.7183772 9.20647356,12.8783482 C9.1664808,13.0383192 9.15648276,13.1882898 9.17647914,13.3282645 C9.19647552,13.4682392 9.19647552,13.6082117 9.17647914,13.7481864 C9.15648276,13.888161 9.10649256,14.0181356 9.02650704,14.1381138 C8.58658668,14.777998 8.32663765,15.3578843 8.24665213,15.8777902 C8.12667385,16.4776816 8.06668561,16.7976188 8.06668561,16.8376116 C7.42680146,17.6774595 7.04687594,18.6972596 6.92689766,19.8970424 L6.92689766,20.1969866 C6.96689042,20.4369432 6.9868865,20.6668981 6.9868865,20.8868582 C6.9868865,21.1068184 6.97688846,21.3467714 6.95689208,21.6067243 C6.9368957,21.8666773 6.89690354,22.0666381 6.8369144,22.2066127 C6.77692527,22.3465874 6.70693899,22.3965776 6.62695347,22.3565848 C5.70712,22.1166283 5.42717488,21.1768125 5.78710972,19.5371094 C5.46716764,20.7768849 5.5071598,21.6567124 5.9070874,22.1766183 C6.02706567,22.3365893 6.31700883,22.5665442 6.77692557,22.8664899 C7.2368423,23.1664356 7.68675409,23.4863729 8.12667445,23.8263114 C8.5665948,24.1662498 8.97651444,24.5161812 9.35644565,24.8761161 C9.73637687,25.2360509 9.91634159,25.6059784 9.89634521,25.9859096 C9.87634883,26.3658408 9.60640175,26.6957761 9.08649588,26.9757254 C9.64639451,28.0555299 9.88634747,28.8753692 9.80636195,29.4352678 C10.0863113,29.1953113 10.0663152,28.6354211 9.74637311,27.7555803 C9.82635863,27.7955731 9.93633707,27.8555613 10.0763117,27.9355469 C10.2162864,28.0155324 10.4862335,28.1155128 10.8861611,28.2354911 C11.2860886,28.3554693 11.6660142,28.3954615 12.025949,28.3554687 C13.0657607,28.2354905 13.9855804,27.9155532 14.7854356,27.3956473 C15.0253922,27.2356763 15.3453294,26.9557312 15.745257,26.5558036 C15.8652353,26.3558398 15.9852118,26.2158672 16.1051901,26.1358817 L16.1651789,26.7957589 C16.2051717,27.1956865 16.1051913,27.6056061 15.8652347,28.0255301 C15.6252782,28.4454541 15.5252978,28.7154012 15.5652905,28.8353794 C15.6052833,28.7953867 15.7352578,28.6054239 15.955218,28.2654855 C16.1751781,27.925547 16.3051527,27.6356039 16.3451454,27.3956473 C16.4251309,26.9957197 16.3851388,26.2758608 16.2251677,25.2360491 Z"/>
    <path fill="#FFFFFF" d="M9.26646239 29.1353236C9.30645515 28.7753888 9.26646299 28.4254574 9.14648472 28.085519 9.02650644 27.7455805 8.7665574 27.2756726 8.36662981 26.6757812L7.76674141 25.7759486C7.68675589 25.6159776 7.5367853 25.3460305 7.31682512 24.9660993 7.09686494 24.5861681 6.91690022 24.2762289 6.77692557 24.0362723 6.63695091 23.7963158 6.43699011 23.5363667 6.17703717 23.2564174 5.91708424 22.9764681 5.66713324 22.7765073 5.42717668 22.656529 4.74729977 22.2965942 4.28738994 22.3965746 4.04743338 22.9564732 4.00744062 23.1164442 3.98744454 23.3563972 3.98744454 23.6763393 3.98744454 23.9962813 3.96744846 24.1962421 3.9274557 24.2762277 3.76748466 24.6361625 3.30757483 24.8561194 2.5477124 24.9361049 1.86783549 24.9361049 1.52790213 25.0960735 1.52790213 25.4160156 1.52790213 25.5359939 1.61788449 25.805941 1.79785191 26.2258649 1.97781933 26.6457889 2.02780952 26.9757242 1.94782401 27.2156808 1.90783125 27.3356591 1.81784889 27.5156238 1.67787423 27.7555803 1.53789957 27.9955369 1.46791329 28.1954977 1.46791329 28.3554687 1.46791329 28.5554325 1.59788781 28.7253992 1.85784075 28.8653739 2.11779368 29.0053485 2.38774076 29.0953309 2.66769008 29.1353236 2.94763939 29.1753164 3.26757667 29.2253066 3.6275115 29.2852957 3.98744634 29.3452849 4.20740322 29.375279 4.28738874 29.375279 4.56733805 29.4552645 5.09723417 29.6252312 5.87709298 29.8851841 6.65695179 30.1451371 7.26683222 30.2951077 7.70675257 30.3351004 8.06668741 30.3750932 8.40662077 30.2751128 8.72656284 30.0351562 9.04650492 29.7951997 9.22646963 29.4952585 9.26646239 29.1353236zM12.385882 8.13922991C12.3458893 8.17922267 12.3258932 8.23921091 12.3258932 8.31919643 12.4058787 8.11923263 12.5458513 7.95926399 12.7458151 7.83928571 12.6658296 7.87927847 12.5458531 7.97925887 12.385882 8.13922991z"/>
  </g>
</svg>
