<svg xmlns="http://www.w3.org/2000/svg" width="25" height="30" viewBox="0 0 25 30">
  <path fill="#FFFFFF" fill-rule="evenodd" d="M18.5929802,7.03125 C20.7286641,7.03125 22.5778262,8.04686484 24.1405217,10.078125 C22.5778262,10.9635461 21.5620893,12.239575 21.0932806,13.90625 C20.6244719,15.572925 20.7546946,17.1874922 21.4839525,18.75 C22.2132105,20.3125078 23.3852146,21.4062469 25,22.03125 C24.4270116,23.3854234 23.8019428,24.5833281 23.1247747,25.625 C21.24954,28.5416812 19.5566452,30 18.0460395,30 L17.9679051,30 C17.3949167,30 16.6526474,29.7916687 15.741075,29.375 C14.8295026,28.9583313 13.9309661,28.75 13.0454386,28.75 C12.1078213,28.75 11.1832403,28.9583313 10.2716678,29.375 C9.36009543,29.7916687 8.61782616,30 8.04483778,30 L7.9667034,30 C6.40400782,30 4.73715754,28.6198055 2.96610256,25.859375 C1.29922728,23.2551953 0.335579462,20.4948062 0.0751301996,17.578125 C-0.185319063,14.6614438 0.231393506,12.3958414 1.32528041,10.78125 C2.88797598,8.2812375 4.91944976,7.03125 7.41976268,7.03125 C8.20111047,7.03125 9.17778055,7.23958125 10.3498022,7.65625 C11.5218239,8.07291875 12.3943159,8.28125 12.9673042,8.28125 C13.4882028,8.28125 14.3216279,8.07291875 15.4676047,7.65625 C16.6135814,7.23958125 17.6553628,7.03125 18.5929802,7.03125 Z M17.9679051,0 C18.1762645,1.666675 17.7074628,3.28124219 16.5614861,4.84375 C15.3634195,6.40625781 13.9049255,7.1875 12.1859604,7.1875 L12.107826,7.1875 C11.8473767,5.67707578 12.3161783,4.11459141 13.514245,2.5 C14.8164913,0.937492187 16.3010298,0.104167187 17.9679051,0 Z"/>
</svg>
