<svg xmlns="http://www.w3.org/2000/svg" width="128" height="128" viewBox="0 0 128 128" xmlns:xlink="http://www.w3.org/1999/xlink">
  <defs>
    <circle id="a" cx="64" cy="64" r="64"/>
  </defs>
  <g fill="none" fill-rule="evenodd" transform="matrix(-1 0 0 1 128 0)">
    <use fill="#EA7362" xlink:href="#a"/>
    <g transform="translate(17.69 36.962)">
      <path fill="#FFFFFF" d="M4.06156053,28.4192976 C4.06156053,28.4192976 17.6615207,16.6253111 18.8718059,15.8239643 C20.0820911,15.0226175 24.9969481,13.0076497 26.0584607,13.0076497 C27.1199734,13.0076497 29.7585649,13.3476421 31.2869465,12.3298959 C32.8153281,11.3121498 44.6694795,4.1614943 48.1142559,2.97537948 C51.5590323,1.78926465 60.0782422,-0.354311094 64.4878085,0.106680255 C68.8973748,0.567671605 77.5806909,3.76672911 82.2895894,9.26059495 C86.998488,14.7544608 87.4403381,14.939269 90.1611343,18.0749635 C92.8819305,21.210658 95.0715237,23.7080388 95.0715237,23.7080388 L106.741014,33.7494138 C106.741014,33.7494138 124.284565,43.2468903 132.469739,44.8464606 C140.654912,46.4460309 151.487166,47.4517301 153.57445,48.5060633 C155.661734,49.5603965 160.334445,52.0001316 160.334445,52.0001316 C160.334445,52.0001316 153.200061,50.3032932 150.310835,50.3032932 C147.421609,50.3032932 137.880951,49.9044045 135.175345,49.2052339 C132.469739,48.5060633 110.584083,42.1930033 105.333259,38.2973692 C100.082435,34.4017351 90.8969556,27.3801346 89.9609838,27.3801346 C89.025012,27.3801346 86.776446,27.0142636 86.1045121,29.1666561 C85.4325782,31.3190486 87.4403381,34.5610228 87.4403381,34.5610228 L87.8183009,35.8451409 L86.7862748,36.9106288 L89.4047619,39.5408845 C89.4047619,39.5408845 87.9782427,47.2027593 85.8033928,48.2039966 C83.6285428,49.2052339 81.5077514,52.6354979 77.4511292,53.1490559 C73.3945069,53.6626139 66.6483619,52.8692984 66.6483619,52.8692984 C66.6483619,52.8692984 65.6659267,52.0924918 65.6659267,51.1978925 C65.6659267,50.3032932 67.8255866,49.7549328 68.9764521,49.7549328 C70.1273176,49.7549328 76.3632575,49.7250385 76.3632575,49.7250385 C76.3632575,49.7250385 82.7783499,44.1365816 82.7783499,43.5114775 C82.7783499,42.8863735 81.7968081,40.9169165 81.7968081,40.9169165 C81.7968081,40.9169165 78.5282785,42.5053322 77.445768,42.5053322 C76.3632575,42.5053322 73.5615969,42.6249096 73.5615969,42.6249096 L71.4693984,44.1874466 L69.6090707,44.1968165 L64.2318124,45.094539 L64.1272695,43.9648007 L62.0962778,43.9969259 C62.0962778,43.9969259 65.9880439,41.5246194 66.3182029,40.5327519 C66.6483619,39.5408845 66.1779189,38.7832638 66.1779189,38.7832638 C66.1779189,38.7832638 64.9962266,37.7400851 60.0782422,38.6404848 C55.1602579,39.5408845 52.1794447,40.5787089 52.1794447,40.5787089 L54.0705991,45.0820459 C54.0705991,45.0820459 54.5808042,48.4386895 54.3257017,48.8219617 C54.0705991,49.2052339 52.2245679,47.7970766 52.2245679,47.7970766 C52.2245679,47.7970766 52.321069,49.508193 50.8400445,49.9057431 C49.35902,50.3032932 47.5572185,50.6816574 47.5572185,50.6816574 C47.5572185,50.6816574 50.3432423,47.0813972 50.3432423,46.5187589 C50.3432423,45.9561207 47.5509638,43.1183893 47.5509638,43.1183893 L45.036126,41.7463729 C45.036126,41.7463729 40.3366095,43.1134813 36.6454407,43.9799709 C32.9542718,44.8464606 28.8047225,45.0204725 28.8047225,45.0204725 L26.6647203,47.2290842 L25.6161638,49.8941423 L22.2993837,50.4398255 C22.2993837,50.4398255 15.1310462,50.472397 14.1785441,50.1832696 C13.2260421,49.8941423 16.2448303,48.1535778 16.2448303,48.1535778 L20.6316116,47.7578124 C20.6316116,47.7578124 21.7159092,47.0483796 22.0076464,45.6406685 C22.2993837,44.2329574 22.1251455,39.8657066 22.1251455,39.8657066 L20.4685425,39.697049 L17.5882513,41.8025921 L15.7949383,41.9632184 L13.2993115,44.2329574 C13.2993115,44.2329574 10.6209493,44.571093 8.95720665,43.9875561 C7.29346396,43.4040192 4.27605249,42.269747 2.53451924,40.5265054 C0.792985981,38.7832638 -0.365334577,35.8451409 0.223852897,33.5214137 C0.813040371,31.1976865 4.06156053,28.4192976 4.06156053,28.4192976 Z"/>
      <ellipse cx="10.5" cy="27.5" fill="#EA7362" rx="1.5" ry="1.5"/>
    </g>
  </g>
</svg>
